# xmcd
#
# Track frame offsets:
#	150
#	13450
#	29820
#	44845
#	56237
#	71127
#	85322
#	95485
#	110777
#	124932
#	137410
#	153140
#	173110
#	189775
#	205877
#	224445
#	241780
#	259690
#	281837
#	301562
#	314770
#
# Disc length: 4416 seconds
#
# Revision: 1
# Processed by: cddbd v1.5.1PL0 Copyright (c) Steve Scherf et al.
# Submitted via: CDex 1.50Beta5
#
DISCID=40113e15
DTITLE=水原弘 - 中村八大作品集〜上を向いて歩こう〜 Disc 1
DYEAR=1999
DGENRE=Pop
TTITLE0=水原弘/黒い花びら
TTITLE1=坂本九/一人ぼっちの二人
TTITLE2=森山加代子/じんじろげ
TTITLE3=九重佑三子/しあわせ
TTITLE4=坂本九/明日があるさ
TTITLE5=城山吉之助/高速一号線
TTITLE6=ダークダックス/ボッサ・ノバNo.8
TTITLE7=植木等/万葉集
TTITLE8=三波春夫/世界の国からこんにちは
TTITLE9=坂本九/さよなら さよなら
TTITLE10=シング・アウト/涙をこえて
TTITLE11=中村八大/太陽と土と水を
TTITLE12=堺正章/なんでこんなに
TTITLE13=小林啓子/さよならをいうまえに
TTITLE14=坂本九/スポットライト
TTITLE15=坂本九/そして想い出
TTITLE16=永六輔/生きているということは
TTITLE17=永六輔/生きるものの歌
TTITLE18=雪村いづみ/涙
TTITLE19=江利チエミ/私だけのあなたに
TTITLE20=美空ひばり/あの人の…
EXTD=
EXTT0=
EXTT1=
EXTT2=
EXTT3=
EXTT4=
EXTT5=
EXTT6=
EXTT7=
EXTT8=
EXTT9=
EXTT10=
EXTT11=
EXTT12=
EXTT13=
EXTT14=
EXTT15=
EXTT16=
EXTT17=
EXTT18=
EXTT19=
EXTT20=
PLAYORDER=
